# xmcd CD database file
#
# Track frame offsets:
#	150
#	20212
#	34274
#	53099
#	78786
#	107473
#	132785
#	161285
#	196235
#	213597
#
# Disc length: 3183 seconds
#
# Revision: 0
# Processed by: cddbd v1.5.2PL0 Copyright (c) Steve Scherf et al.
# Submitted via: CDex 1.70beta2
#
DISCID=7b0c6d0a
DTITLE=Mount George Blues Revolution - Jazz in der Mitte Live - Set 2
DYEAR=2008
DGENRE=Blues
TTITLE0=Blue Suede Shoes
TTITLE1=C'est la vie
TTITLE2=Rollin' and Tumblin'
TTITLE3=Wild about you
TTITLE4=Route 66
TTITLE5=Rock me baby
TTITLE6=Louisiana Blues
TTITLE7=It was a dream
TTITLE8=Chicago Bound
TTITLE9=Bullfrog Blues
EXTD=YEAR: 2008
EXTT0=
EXTT1=
EXTT2=
EXTT3=
EXTT4=
EXTT5=
EXTT6=
EXTT7=
EXTT8=
EXTT9=
PLAYORDER=
